<svg width="282" height="95" viewBox="0 0 282 95" fill="none" xmlns="http://www.w3.org/2000/svg">
<path d="M185.503 2.17791C190.026 0.057683 195.192 -0.336967 200.106 0.240038C204.609 0.784383 209.098 2.63788 212.166 6.06997C214.589 8.72093 215.785 12.2809 216.052 15.8219C211.974 15.8219 207.896 15.8219 203.815 15.8219C203.689 14.0639 202.874 12.427 201.547 11.2685C199.475 9.42586 196.514 9.02576 193.849 9.34693C191.673 9.6191 189.498 10.8983 188.723 13.0321C188.013 15.0353 188.016 17.5556 189.539 19.1941C191.535 21.396 194.48 22.2452 197.202 23.1678C200.941 24.3327 204.729 25.3833 208.283 27.0409C210.79 28.2168 212.947 30.0297 214.537 32.2992C216.332 34.9121 216.797 38.2081 216.614 41.3136C216.457 43.6892 215.76 45.9975 214.577 48.0628C213.394 50.1282 211.755 51.8961 209.786 53.232C205.408 56.2912 199.858 57.0969 194.635 56.694C189.558 56.3157 184.353 54.5657 180.739 50.8478C177.966 48.0635 176.503 44.1578 176.478 40.2494H188.399C188.573 42.1219 189.191 44.0271 190.561 45.3717C192.367 47.2333 195.111 47.7586 197.61 47.6008C199.684 47.5028 201.846 46.8741 203.336 45.3526C205.476 43.2841 205.754 39.5417 203.907 37.2011C202.14 35.0237 199.407 34.1065 196.837 33.2927C192.514 31.9753 188.1 30.8431 184.057 28.7964C180.742 26.9701 177.868 23.9163 177.085 20.1195C176.315 16.4561 176.541 12.4796 178.221 9.09109C179.73 6.0237 182.414 3.6177 185.503 2.17791Z" fill="#003B6E"/>
<path d="M64.7061 0.719526C75.4254 0.719526 86.1438 0.719526 96.8613 0.719526C96.8613 3.74608 96.8613 6.77355 96.8613 9.80192H75.855C75.855 14.418 75.855 19.0331 75.855 23.6473H94.4847C94.4847 26.5941 94.4847 29.5417 94.4847 32.4902H75.855C75.855 37.3784 75.855 42.2667 75.855 47.1549C82.858 47.1549 89.8601 47.1549 96.8613 47.1549V56.24H64.7061C64.7061 37.7341 64.7061 19.2273 64.7061 0.719526Z" fill="#003B6E"/>
<path d="M135.469 24.0221C137.685 23.2056 140.337 24.8195 140.636 27.1602C141.065 29.3703 139.276 31.6701 137.035 31.7735C136.064 31.8539 135.097 31.5748 134.318 30.989C133.539 30.4033 133.002 29.5517 132.808 28.5959C132.615 27.64 132.779 26.6463 133.269 25.8032C133.759 24.9601 134.541 24.3264 135.466 24.0221H135.469Z" fill="#003B6E"/>
<path d="M149.337 12.3487C152.691 8.93564 156.062 5.53983 159.45 2.16126C163.069 5.32153 165.994 9.19791 168.041 13.546C170.088 17.894 171.213 22.6195 171.344 27.4243C171.714 37.6743 167.189 47.908 159.45 54.6144C158.327 53.4604 157.166 52.3444 156.059 51.1796C163.91 44.9196 167.559 34.3048 166.308 24.474C165.635 18.7696 163.26 13.4005 159.494 9.06628C158.33 10.155 157.202 11.309 156.07 12.4467C159.483 16.6708 161.615 21.9727 161.754 27.4325C162.039 35.0533 158.605 42.6388 152.93 47.6876C152.658 48.0196 152.386 47.4889 152.165 47.3555C148.921 44.0895 145.715 40.8234 142.439 37.5927C144.478 36.0141 146.265 33.9619 146.98 31.4334C147.894 28.4912 147.203 25.2987 145.778 22.6395C144.707 23.7282 143.603 24.7842 142.561 25.9056C141.937 24.3618 140.804 23.0785 139.35 22.2694C141.506 20.1083 143.668 17.9636 145.816 15.7862C149.623 18.6114 152.168 23.1784 152.171 27.9605C152.277 31.4035 151.083 34.7648 149.248 37.6362C150.39 38.7249 151.458 39.8925 152.592 40.9948C155.771 37.0674 157.463 31.9179 156.97 26.8636C156.495 21.2487 153.531 16.0366 149.337 12.3487Z" fill="#00B3FF"/>
<path d="M105.465 13.263C107.509 9.03412 110.386 5.26317 113.925 2.17737C117.291 5.57681 120.677 8.95447 124.027 12.3702C119.905 15.9956 116.973 21.0798 116.413 26.594C115.834 31.7489 117.536 37.0018 120.764 41.0191C121.898 39.8978 123.007 38.7546 124.111 37.6088C121.936 34.2964 120.777 30.2601 121.305 26.3C121.811 22.1303 124.204 18.3281 127.521 15.8105C129.683 17.9879 131.872 20.1081 134.028 22.2991C132.575 23.0947 131.455 24.3859 130.871 25.938C129.784 24.833 128.696 23.7334 127.578 22.6502C126.219 25.2549 125.509 28.3386 126.33 31.2291C127.004 33.8446 128.826 35.9921 130.939 37.5952C127.521 41.0409 124.057 44.443 120.666 47.9024C115.415 43.2945 111.991 36.5827 111.638 29.5743C111.257 23.4041 113.425 17.2149 117.305 12.4437C116.185 11.2979 115.023 10.1956 113.892 9.06334C109.623 13.8726 107.203 20.1952 106.877 26.5967C106.333 35.788 110.025 45.3766 117.313 51.182C116.179 52.317 115.075 53.4846 113.93 54.6087C108.181 49.5972 104.237 42.8323 102.708 35.3565C101.178 27.8806 102.147 20.1088 105.465 13.2385V13.263Z" fill="#00B3FF"/>
<path d="M0.0305471 73.1979H3.30927C3.30927 78.1352 3.30927 83.076 3.30927 88.0201H10.3097C10.3097 88.9427 10.3097 89.8704 10.3097 90.798C6.8748 90.8217 3.43825 90.8217 0 90.798C0.0509119 84.9381 0.0254559 79.073 0.0305471 73.1979Z" fill="#003B6E"/>
<path d="M90.4596 74.083C91.7476 72.7396 93.7587 72.7194 95.4795 72.9475L95.3878 74.9194C94.5586 75.0088 93.7401 75.1785 92.9441 75.4263C92.0226 76.1056 92.2364 77.3779 92.0531 78.3664C93.1579 78.3664 94.2627 78.3664 95.3726 78.3664C95.3726 79.1268 95.3726 79.8872 95.3726 80.6475H92.2517C92.2517 84.0185 92.2517 87.3946 92.2517 90.7859H89.253C89.253 87.4757 89.253 84.196 89.253 80.8655C87.8478 80.7134 87.0739 79.7959 87.247 78.3715H89.1613C89.2988 76.9014 89.2988 75.2235 90.4596 74.083Z" fill="#003B6E"/>
<path d="M98.9616 74.4898C100.738 72.7105 103.467 72.6801 105.809 72.9691C105.758 73.6534 105.707 74.3377 105.662 75.0272C104.338 75.1691 102.917 75.0626 101.716 75.7064C100.698 76.188 100.698 77.4502 100.346 78.3576C102.968 78.4438 105.595 78.3981 108.217 78.4083V90.8277H105.259V80.6894H100.677C100.677 84.0689 100.677 87.4483 100.677 90.8277H97.6939C97.6939 87.5176 97.6939 84.2074 97.6939 80.9023C96.2633 80.7553 95.5607 79.8378 95.7389 78.4336L97.5717 78.3931C97.7499 77.0244 97.8874 75.4884 98.9616 74.4898Z" fill="#003B6E"/>
<path d="M124.122 73.0757C125.227 72.2799 126.907 73.2684 126.963 74.5661C127.177 76.0868 125.115 77.3034 123.909 76.249C123.652 76.0611 123.447 75.8119 123.313 75.5244C123.179 75.2368 123.12 74.9203 123.141 74.604C123.163 74.2877 123.264 73.9818 123.435 73.7147C123.607 73.4476 123.843 73.2278 124.122 73.0757Z" fill="#003B6E"/>
<path d="M187.461 73.885C190.114 72.3643 193.459 73.1043 195.887 74.7316C195.429 75.4767 194.966 76.2117 194.477 76.9316C192.919 76.1509 191.157 75.0864 189.386 75.8316C188.036 76.2726 187.517 78.285 188.714 79.1772C190.796 80.5814 193.805 80.5205 195.383 82.6547C197.109 85.2805 195.765 89.2851 192.837 90.4156C189.93 91.6372 186.489 90.6842 184.254 88.5754C184.722 87.8455 185.201 87.124 185.689 86.4109C187.415 87.2321 189.182 88.6363 191.223 88.0533C192.975 87.7999 193.805 85.2349 192.354 84.1348C190.429 82.8676 187.772 82.9588 186.127 81.2353C184.137 79.0809 184.87 75.2233 187.461 73.885Z" fill="#003B6E"/>
<path d="M214.038 73.9682C215.336 72.706 217.281 72.7516 218.961 72.9544C218.91 73.6184 218.864 74.2876 218.819 74.9567C217.943 75.1443 216.965 75.0986 216.197 75.6106C215.545 76.3761 215.688 77.471 215.494 78.3987L218.839 78.424C218.839 79.1793 218.839 79.9448 218.839 80.695H215.718C215.718 84.0744 215.718 87.4539 215.718 90.8333H212.735C212.735 87.5282 212.735 84.2434 212.735 80.913C212.15 80.7186 211.575 80.4935 211.014 80.2388L210.79 78.4443L212.658 78.4037C212.74 76.8475 212.786 75.0784 214.038 73.9682Z" fill="#003B6E"/>
<path d="M75.13 73.3279H86.1728C86.1728 74.1744 86.1728 75.021 86.1728 75.8625H78.4342C78.4342 77.4643 78.4342 79.0662 78.4342 80.6681C80.4707 80.6681 82.5072 80.6681 84.5131 80.6681C84.5131 81.5095 84.5131 82.3561 84.5131 83.2026C82.4766 83.2026 80.4401 83.2026 78.4342 83.2026C78.4342 84.8924 78.4342 86.5821 78.4342 88.2718C81.0256 88.3073 83.6119 88.2718 86.2034 88.3073C86.2034 89.1437 86.2034 89.9801 86.2034 90.8419C82.5224 90.8419 78.8415 90.8419 75.1606 90.8419C75.1368 84.9954 75.1266 79.1574 75.13 73.3279Z" fill="#003B6E"/>
<path d="M221.461 78.4018C221.688 77.0973 221.929 75.7996 222.184 74.5087L224.296 74.458V78.3916H227.539C227.539 79.147 227.539 79.9124 227.539 80.6677H224.301C224.368 83.2023 224.118 85.7369 224.449 88.241C225.121 88.9761 226.094 88.3576 226.908 88.2816C227.248 88.873 227.587 89.4711 227.926 90.0761C226.623 90.583 225.233 91.1609 223.813 90.8719C223.188 90.7788 222.612 90.4819 222.176 90.0278C221.739 89.5737 221.466 88.988 221.399 88.3627C221.175 85.8028 221.359 83.2327 221.308 80.6677H219.567C219.516 80.029 219.47 79.3903 219.434 78.7516L221.461 78.4018Z" fill="#003B6E"/>
<path d="M15.289 78.4278C17.8754 77.632 21.1592 78.3518 22.5796 80.8053C23.2323 81.99 23.56 83.325 23.5296 84.6759C23.4992 86.0268 23.1118 87.3459 22.4065 88.5003C20.6908 91.1008 16.8724 91.5925 14.2301 90.1985C9.81601 87.7957 10.2844 79.8574 15.289 78.4278ZM15.7218 80.8509C13.9959 82.1892 14.1486 84.7897 14.6221 86.6957C15.1312 88.9616 18.6594 89.3874 19.81 87.4256C20.5651 85.7846 20.6598 83.9179 20.0748 82.2094C19.5402 80.4454 17.183 79.9131 15.7218 80.8509Z" fill="#003B6E"/>
<path d="M29.044 78.4224C31.6354 77.6266 34.9396 78.3616 36.3447 80.8404C36.9889 82.0242 37.3096 83.3557 37.2747 84.7017C37.2399 86.0476 36.8507 87.3609 36.1462 88.5101C34.4254 91.1055 30.6121 91.5871 27.9697 90.1981C23.5608 87.7903 24.0342 79.8469 29.044 78.4224ZM29.5531 80.7999C27.7355 82.1077 27.8934 84.7994 28.3872 86.7308C28.9472 88.9866 32.4602 89.3769 33.5802 87.3949C33.9758 86.5327 34.1899 85.599 34.2092 84.6513C34.2284 83.7036 34.0525 82.7621 33.6922 81.8847C32.9947 80.3639 30.9277 80.0192 29.5429 80.7999H29.5531Z" fill="#003B6E"/>
<path d="M39.3399 78.3366C40.4803 78.4025 41.9517 78.144 42.2419 79.6039C43.3263 78.6813 44.7009 77.7993 46.2079 78.2099C47.2974 78.362 47.8676 79.3758 48.504 80.1413C49.6852 78.7574 51.4467 77.7942 53.3203 78.1947C55.2957 78.3772 56.6906 80.2528 56.711 82.1588C56.8536 85.0431 56.711 87.9275 56.767 90.8169H53.7785C53.6818 87.7754 53.9872 84.7339 53.6207 81.7381C53.1115 79.7104 49.7717 80.1615 49.6444 82.1791C49.4153 85.0482 49.6139 87.9326 49.5579 90.7967H46.549C46.5235 88.0745 46.605 85.3473 46.549 82.6201C46.5846 81.7127 46.1875 80.633 45.1693 80.4708C44.0849 80.0703 43.1786 81.0132 42.3182 81.5099C42.3641 84.5971 42.3182 87.6893 42.3539 90.7764L39.3552 90.8068C39.3399 86.6602 39.3297 82.4984 39.3399 78.3366Z" fill="#003B6E"/>
<path d="M60.9959 78.7216C63.2156 77.5709 65.8681 78.2147 67.8028 79.6188C67.4769 80.1663 67.1511 80.7189 66.8304 81.2714C65.2215 80.7645 62.5385 79.482 61.7137 81.7226C62.4316 83.5677 64.9314 83.2839 66.3823 84.3129C68.7039 85.4991 68.1235 89.1134 66.0107 90.2134C63.6382 91.5415 60.7057 90.9383 58.5063 89.5443C58.939 88.9461 59.382 88.3581 59.8249 87.7751C61.113 88.3226 62.457 89.2959 63.9284 88.8194C64.8855 88.642 65.6034 87.2074 64.6717 86.5585C63.18 85.5447 61.1639 85.5447 59.83 84.2673C58.2568 82.635 58.9288 79.6138 60.9959 78.7216Z" fill="#003B6E"/>
<path d="M112.218 80.0899C114.438 77.4489 118.694 77.6111 121.209 79.7604L120.023 81.3978C118.45 80.678 116.363 79.7351 114.932 81.2102C113.45 83.0909 113.435 86.2794 115.161 88.0333C116.688 89.3462 118.654 88.3375 120.064 87.4149L121.372 88.9914C119.336 90.9177 116.062 91.6578 113.568 90.1725C110.294 88.0485 109.953 83.0301 112.218 80.0899Z" fill="#003B6E"/>
<path d="M131.876 78.8552C134.238 77.5727 137.68 77.9478 139.228 80.2948C140.205 81.6432 140.21 83.3668 140.154 84.9585C137.334 85.0295 134.513 84.9585 131.698 85.0244C132.09 86.2511 132.349 87.8074 133.709 88.3498C135.445 89.2064 137.273 88.1774 138.83 87.4677L140.18 88.9885C139.171 89.8827 137.942 90.4946 136.618 90.7618C135.295 91.0289 133.923 90.9418 132.645 90.5092C127.956 88.8313 127.492 81.187 131.876 78.8552ZM131.764 83.1741C133.736 83.235 135.71 83.235 137.685 83.1741C137.323 81.9626 136.758 80.4621 135.231 80.4418C133.419 80.0769 132.242 81.6483 131.764 83.1741Z" fill="#003B6E"/>
<path d="M142.691 78.3416C143.847 78.3923 145.318 78.149 145.598 79.6393C146.866 78.6863 148.393 77.8449 150.048 78.1896C152.028 78.3771 153.403 80.273 153.449 82.1689C153.581 85.0482 153.449 87.9325 153.5 90.8169H150.511C150.511 88.2823 150.542 85.7477 150.511 83.1827C150.481 82.2804 150.44 81.0891 149.493 80.6481C148.149 79.8979 146.8 80.932 145.685 81.6113C145.71 84.6528 145.685 87.7196 145.71 90.7763L142.711 90.8118C142.691 86.6652 142.681 82.5034 142.691 78.3416Z" fill="#003B6E"/>
<path d="M157.012 80.106C159.221 77.4497 163.488 77.6069 166.008 79.7562L164.827 81.3986C163.248 80.6838 161.156 79.7308 159.705 81.2212C158.228 83.0917 158.218 86.2903 159.919 88.024C161.446 89.347 163.426 88.3433 164.837 87.4157L166.155 88.9871C164.119 90.9236 160.835 91.6637 158.34 90.1733C155.107 88.0443 154.756 83.0461 157.012 80.106Z" fill="#003B6E"/>
<path d="M201.631 78.4289C204.218 77.628 207.512 78.3579 208.927 80.8266C209.61 82.0628 209.934 83.4638 209.863 84.8729C209.792 86.282 209.329 87.6436 208.525 88.8055C206.101 91.9129 200.45 91.6442 198.485 88.1719C196.56 84.882 197.609 79.5593 201.631 78.4289ZM202.095 80.8317C200.328 82.1547 200.481 84.7958 200.964 86.7119C201.504 88.9576 204.976 89.3834 206.137 87.4469C206.547 86.5777 206.771 85.6329 206.793 84.6728C206.816 83.7127 206.638 82.7584 206.269 81.8709C205.557 80.3501 203.449 80.0105 202.095 80.8317Z" fill="#003B6E"/>
<path d="M248.912 80.0494C250.796 78.6046 253.24 77.7023 255.623 78.2954C256.484 78.5371 257.248 79.0399 257.809 79.734C258.37 80.428 258.7 81.2789 258.754 82.1683C258.911 85.0729 258.754 87.9877 258.815 90.8974C257.618 90.9531 256.412 90.7554 256.121 89.4172C254.523 90.6541 252.385 91.4448 250.404 90.6591C248.307 89.9292 247.782 86.8116 249.493 85.4176C251.295 83.8968 253.774 83.8259 256.004 83.6383C255.775 82.6245 256.004 81.1798 254.854 80.6424C253.286 79.8567 251.84 81.2457 250.348 81.5498C249.635 81.3826 249.401 80.4954 248.912 80.0494ZM251.931 86.3098C250.944 86.8724 251.198 88.6619 252.359 88.8444C253.673 89.2195 254.854 88.3831 255.923 87.7393C255.923 86.9536 255.887 86.1729 255.872 85.3923C254.543 85.6052 253.082 85.5494 251.931 86.3098Z" fill="#003B6E"/>
<path d="M264.338 80.3498C265.545 78.7378 267.454 77.6276 269.506 78.3829C269.338 79.2599 269.175 80.1419 268.997 81.0189C267.337 80.7553 265.29 80.9631 264.659 82.788C264.374 85.4493 264.618 88.1411 264.542 90.8176H261.559C261.559 86.6659 261.559 82.5194 261.559 78.3677C262.394 78.3981 263.229 78.4285 264.074 78.4691C264.155 78.9405 264.277 79.8783 264.338 80.3498Z" fill="#003B6E"/>
<path d="M271.482 81.004C273.177 77.7749 278.273 77.0855 280.686 79.8584C281.934 81.2372 281.995 83.1837 282 84.9275C279.179 85.0238 276.359 84.963 273.544 84.9833C273.834 86.2911 274.185 87.9082 275.641 88.3948C277.347 89.1704 279.078 88.1363 280.605 87.4418C281.073 87.9842 281.532 88.5418 281.975 89.1147C279.597 90.9649 276.109 91.6492 273.426 90.0474C270.524 88.1819 269.919 83.9238 271.482 81.004ZM273.518 83.1787C275.5 83.2294 277.484 83.2294 279.47 83.1787C279.129 81.8607 278.375 80.345 276.771 80.4109C275.025 80.1929 274.037 81.7542 273.538 83.1787H273.518Z" fill="#003B6E"/>
<path d="M123.527 78.3983H126.515C126.515 82.5381 126.515 86.6779 126.515 90.8177H123.527V78.3983Z" fill="#003B6E"/>
<path d="M166.379 78.4035H169.495C170.794 81.0242 171.695 83.8174 172.937 86.4685C174.006 83.8275 174.973 81.151 176.027 78.5049C177.046 78.444 178.033 78.4086 179.051 78.3883C177.071 83.1077 175.014 87.7966 173.044 92.5211C172.739 93.3285 172.342 94.0989 171.863 94.8174C170.931 94.9188 169.989 94.9036 169.057 94.929C169.836 93.2713 170.62 91.6239 171.389 89.9662C169.729 86.1035 168.06 82.2493 166.379 78.4035Z" fill="#003B6E"/>
<path d="M228.496 78.3833C229.514 78.3833 230.532 78.4137 231.55 78.4391C232.426 81.4806 233.276 84.5221 233.948 87.5991C234.875 84.6437 235.639 81.6276 236.738 78.7331C237.461 78.1907 239.325 77.9879 239.574 79.1843C240.501 81.9368 241.239 84.7603 242.074 87.5281C242.848 84.4866 243.657 81.4451 244.594 78.4036C245.546 78.4036 246.503 78.4036 247.471 78.4036C246.164 82.5434 244.854 86.6849 243.54 90.8281C242.603 90.8281 241.667 90.8281 240.735 90.7876C239.808 87.8475 238.846 84.9175 237.991 81.9571C237.12 84.9378 236.168 87.8931 235.16 90.8332H232.431C231.123 86.6664 229.779 82.535 228.496 78.3833Z" fill="#003B6E"/>
</svg>
