<svg width="66" height="50" viewBox="0 0 66 50" fill="none" xmlns="http://www.w3.org/2000/svg">
<path d="M31.8447 20.8384C33.9534 20.0601 36.4761 21.5986 36.7607 23.8298C37.1695 25.9365 35.467 28.1288 33.335 28.2274C32.411 28.304 31.4911 28.0379 30.7498 27.4796C30.0085 26.9212 29.4973 26.1095 29.3132 25.1983C29.1291 24.2871 29.2849 23.3399 29.751 22.5363C30.2172 21.7326 30.9613 21.1285 31.8421 20.8384H31.8447Z" fill="#00B3FF"/>
<path d="M45.0404 9.71098C48.2315 6.45755 51.439 3.22056 54.6628 0C58.1057 3.01247 60.8888 6.70756 62.8367 10.8523C64.7845 14.997 65.8547 19.5014 65.98 24.0816C66.3319 33.8522 62.0265 43.6073 54.6628 50C53.5943 48.9 52.4895 47.8362 51.4364 46.7258C58.9061 40.7586 62.3784 30.6403 61.1882 21.2692C60.5471 15.8316 58.2876 10.7136 54.7042 6.58209C53.5968 7.61986 52.5231 8.7199 51.4468 9.80438C54.6939 13.8309 56.7224 18.8849 56.8543 24.0894C57.126 31.3538 53.8582 38.5845 48.4583 43.3972C48.1996 43.7137 47.9409 43.2078 47.7313 43.0806C44.6446 39.9673 41.5941 36.854 38.4763 33.7744C40.4168 32.2696 42.1167 30.3134 42.7972 27.9032C43.6665 25.0986 43.0094 22.0553 41.6536 19.5205C40.6342 20.5583 39.5837 21.565 38.5927 22.6339C37.9991 21.1623 36.9207 19.939 35.537 19.1677C37.5888 17.1077 39.6458 15.0633 41.6898 12.9878C45.3121 15.6808 47.7339 20.0342 47.7365 24.5927C47.8374 27.8746 46.7015 31.0788 44.955 33.8159C46.0417 34.8537 47.0586 35.9667 48.1375 37.0174C51.1621 33.2737 52.7715 28.365 52.3032 23.5471C51.8504 18.1948 49.0302 13.2264 45.0404 9.71098Z" fill="#003B6E"/>
<path d="M3.29621 10.5825C5.24049 6.55143 7.9786 2.95684 11.3455 0.0153554C14.5487 3.25581 17.7699 6.4755 20.9576 9.73152C17.0351 13.1873 14.2459 18.0337 13.7129 23.29C13.1618 28.2039 14.7815 33.2112 17.8527 37.0406C18.9317 35.9717 19.9873 34.882 21.0378 33.7897C18.9679 30.6323 17.8657 26.7847 18.3676 23.0098C18.8489 19.0352 21.1257 15.4107 24.2823 13.0109C26.3393 15.0864 28.4221 17.1075 30.4739 19.196C29.0908 19.9544 28.0249 21.1853 27.47 22.6648C26.435 21.6114 25.4001 20.5633 24.3367 19.5307C23.043 22.0136 22.3677 24.9531 23.1491 27.7084C23.7907 30.2016 25.5243 32.2486 27.5346 33.7768C24.2823 37.0613 20.986 40.3044 17.7596 43.6019C12.7634 39.2095 9.50588 32.8116 9.16952 26.131C8.80729 20.2494 10.8694 14.3496 14.5616 9.80157C13.4956 8.70931 12.3908 7.65856 11.3145 6.57928C7.25229 11.1636 4.94954 17.1905 4.63905 23.2926C4.12158 32.0541 7.63522 41.1943 14.5694 46.7282C13.4904 47.8101 12.44 48.9231 11.3507 49.9946C5.88005 45.2174 2.12791 38.7689 0.672427 31.6427C-0.783058 24.5165 0.13889 17.1081 3.29621 10.5591V10.5825Z" fill="#003B6E"/>
</svg>
